<svg width="159" height="53" viewBox="0 0 159 53" fill="none" xmlns="http://www.w3.org/2000/svg">
<path d="M2.24 0.479999C3.64 0.599997 4.86 0.979997 5.9 1.62C6.94 2.22 7.46 3.14 7.46 4.38C7.46 5.3 7.02 6.04 6.14 6.6C5.3 7.12 4.28 7.38 3.08 7.38C1.92 7.38 1.12 7.08 0.68 6.48C0.24 5.88 0.0200001 5.26 0.0200001 4.62C0.0200001 3.42 0.14 2.42 0.38 1.62C0.66 0.819999 1.28 0.439999 2.24 0.479999ZM7.04 27.06V28.8C7.04 30.36 7.08 31.84 7.16 33.24C7.28 34.6 7.42 35.98 7.58 37.38C7.54 37.78 7.24 38.2 6.68 38.64C6.12 39.04 5.62 39.24 5.18 39.24C4.42 39.24 3.64 39.1 2.84 38.82C2.08 38.5 1.62 38.12 1.46 37.68C1.22 36.4 1.1 35.26 1.1 34.26C1.1 30.98 1 27.3 0.8 23.22C0.64 19.62 0.56 17.1 0.56 15.66C0.56 14.94 0.92 14.32 1.64 13.8C2.36 13.28 3.12 13.02 3.92 13.02C5.08 13.02 5.88 13.28 6.32 13.8C6.8 14.32 7.04 15.14 7.04 16.26V27.06ZM14.5316 18.24C13.9716 18.16 13.5116 17.92 13.1516 17.52C12.8316 17.12 12.6716 16.64 12.6716 16.08C12.6716 15.8 12.7316 15.5 12.8516 15.18C13.0116 14.86 13.2316 14.58 13.5116 14.34C14.0316 13.82 15.4316 13.56 17.7116 13.56C18.0316 12 18.1916 10.42 18.1916 8.82C18.1916 8.22 18.1716 7.7 18.1316 7.26C18.0916 6.82 18.0716 6.48 18.0716 6.24C18.0716 5.36 18.3916 4.7 19.0316 4.26C19.7116 3.82 20.4716 3.6 21.3116 3.6C22.3516 3.6 23.0516 3.86 23.4116 4.38C23.8116 4.9 24.0116 5.86 24.0116 7.26C24.0116 9.34 23.8316 11.38 23.4716 13.38C24.1116 13.38 24.9916 13.34 26.1116 13.26C27.6316 13.18 28.7316 13.14 29.4116 13.14C30.0916 13.14 30.6716 13.32 31.1516 13.68C31.6716 14 31.9316 14.46 31.9316 15.06C31.9316 16.62 31.2316 17.54 29.8316 17.82C28.3516 18.18 26.0516 18.4 22.9316 18.48C22.8116 20.04 22.7516 21.74 22.7516 23.58C22.7516 26.46 22.9316 28.82 23.2916 30.66C23.5316 31.94 23.9316 32.88 24.4916 33.48C25.0916 34.04 25.9716 34.32 27.1316 34.32C27.8116 34.32 28.5116 34.14 29.2316 33.78C29.7116 33.5 30.1516 33.36 30.5516 33.36C31.1116 33.36 31.5116 33.54 31.7516 33.9C32.0316 34.26 32.1716 34.74 32.1716 35.34C32.1716 36.46 31.5716 37.4 30.3716 38.16C29.1716 38.88 27.6316 39.24 25.7516 39.24C24.5916 39.24 23.4116 38.96 22.2116 38.4C21.0516 37.84 20.0716 37.14 19.2716 36.3C19.1516 36.18 18.9316 35.72 18.6116 34.92C18.2916 34.12 18.0116 33.26 17.7716 32.34C17.3716 30.46 17.1716 27.82 17.1716 24.42C17.1716 22.94 17.2516 20.96 17.4116 18.48L14.5316 18.24ZM45.0102 36.84C44.8902 37.44 44.5302 37.96 43.9302 38.4C43.3702 38.8 42.5702 39 41.5302 39C40.6502 39 39.9502 38.76 39.4302 38.28C38.9502 37.8 38.6902 37.3 38.6502 36.78C38.8902 35.1 39.0102 32.58 39.0102 29.22C39.0102 27.22 38.8902 24.14 38.6502 19.98C38.3702 16.06 38.2302 12.58 38.2302 9.54C38.2302 7.9 38.3102 6.22 38.4702 4.5C38.4702 3.94 38.7902 3.34 39.4302 2.7C40.1102 2.06 41.0302 1.66 42.1902 1.5C45.9902 1.1 50.6502 0.899997 56.1702 0.899997H58.0902C59.5302 0.899997 60.9302 1.16 62.2902 1.68C63.6902 2.2 64.3902 3.1 64.3902 4.38C64.3902 5.22 64.1902 5.88 63.7902 6.36C63.3902 6.84 62.6502 7.08 61.5702 7.08C61.0502 7.08 60.4502 7.04 59.7702 6.96C59.0902 6.88 58.6102 6.82 58.3302 6.78C56.8102 6.54 55.6302 6.42 54.7902 6.42C50.1502 6.42 46.6502 6.74 44.2902 7.38C44.2902 8.7 44.3302 10.84 44.4102 13.8L44.4702 17.64C46.5502 17.64 48.4102 17.56 50.0502 17.4C51.6902 17.2 52.6302 17.08 52.8702 17.04C54.9502 16.8 56.3302 16.68 57.0102 16.68C57.9702 16.68 58.7702 16.9 59.4102 17.34C60.0902 17.74 60.4302 18.38 60.4302 19.26C60.4302 21.26 59.0302 22.26 56.2302 22.26C55.5502 22.26 54.9502 22.28 54.4302 22.32C53.9102 22.36 53.4702 22.4 53.1102 22.44C51.6702 22.6 50.5302 22.68 49.6902 22.68C47.8502 22.68 46.2902 22.74 45.0102 22.86C45.0102 24.34 45.0702 25.9 45.1902 27.54C45.1902 28.06 45.2102 28.86 45.2502 29.94C45.3302 31.02 45.3702 32 45.3702 32.88C45.3702 33.64 45.3502 34.34 45.3102 34.98C45.2702 35.62 45.1702 36.24 45.0102 36.84ZM68.0919 17.94C67.0519 17.22 66.5319 16.46 66.5319 15.66C66.5319 15.1 66.7719 14.58 67.2519 14.1C67.7319 13.62 68.4519 13.38 69.4119 13.38C70.5319 13.38 71.5319 13.68 72.4119 14.28C73.3319 14.84 73.9719 15.66 74.3319 16.74C75.2519 15.66 76.2919 14.8 77.4519 14.16C78.6519 13.52 79.8719 13.2 81.1119 13.2C82.5919 13.2 83.9319 13.6 85.1319 14.4C86.3319 15.2 86.9319 16.28 86.9319 17.64C86.9319 18.4 86.5919 19.18 85.9119 19.98C85.2719 20.78 84.6119 21.18 83.9319 21.18C83.5719 21.18 83.2519 21.1 82.9719 20.94C82.7319 20.74 82.4319 20.46 82.0719 20.1C81.6719 19.7 81.3319 19.42 81.0519 19.26C80.7719 19.06 80.4519 18.96 80.0919 18.96C79.4519 18.96 78.8519 19.06 78.2919 19.26C77.7319 19.46 77.3519 19.7 77.1519 19.98C76.5119 20.98 76.0319 21.88 75.7119 22.68C75.4319 23.48 75.2919 24.34 75.2919 25.26C75.2919 25.94 75.2719 26.48 75.2319 26.88L75.1719 30.3C75.1719 30.82 75.1919 31.4 75.2319 32.04C75.2719 32.68 75.3119 33.16 75.3519 33.48C75.4719 34.56 75.5319 35.6 75.5319 36.6C75.5319 37.28 75.2719 37.88 74.7519 38.4C74.2319 38.92 73.5919 39.18 72.8319 39.18C71.6319 39.18 70.7519 38.96 70.1919 38.52C69.6319 38.04 69.3519 37.18 69.3519 35.94L69.2919 32.1C69.2519 31.34 69.2319 30.26 69.2319 28.86L69.2919 24.9C69.3719 22.98 69.4119 21.42 69.4119 20.22C69.4119 19.78 69.3119 19.38 69.1119 19.02C68.9519 18.66 68.6119 18.3 68.0919 17.94ZM114.109 19.74C114.429 20.3 114.689 21.12 114.889 22.2C115.089 23.24 115.189 24.18 115.189 25.02C115.189 26.1 115.069 27.3 114.829 28.62C114.589 29.94 114.369 30.96 114.169 31.68C111.409 36.72 107.329 39.24 101.929 39.24C99.9291 39.24 97.8891 38.58 95.8091 37.26C93.7291 35.94 92.2891 34.42 91.4891 32.7C90.4091 29.3 89.8691 27.12 89.8691 26.16C89.8691 24.56 90.2091 22.86 90.8891 21.06C91.6091 19.26 92.5091 17.7 93.5891 16.38C94.3091 15.46 95.5491 14.68 97.3091 14.04C99.0691 13.36 100.669 13.02 102.109 13.02C104.909 13.02 107.269 13.56 109.189 14.64C111.149 15.68 112.789 17.38 114.109 19.74ZM108.889 29.4C109.089 29 109.189 27.66 109.189 25.38C109.189 24.22 108.969 23.08 108.529 21.96C108.129 20.84 107.529 19.88 106.729 19.08C106.649 19 106.429 18.88 106.069 18.72C105.709 18.52 105.209 18.34 104.569 18.18C103.969 17.98 103.269 17.88 102.469 17.88C100.229 17.88 98.5891 18.78 97.5491 20.58C96.5091 22.38 95.9891 24.42 95.9891 26.7C95.9891 27.06 96.1091 27.8 96.3491 28.92C96.5891 30.04 96.7691 30.76 96.8891 31.08C97.2091 31.64 97.8491 32.3 98.8091 33.06C99.8091 33.78 100.889 34.14 102.049 34.14C103.849 34.14 105.269 33.72 106.309 32.88C107.389 32 108.249 30.84 108.889 29.4ZM125.438 38.1C125.158 37.5 125.018 36.8 125.018 36C125.018 35.24 125.578 34.1 126.698 32.58C124.778 31.94 123.258 30.8 122.138 29.16C121.058 27.52 120.518 25.6 120.518 23.4C120.518 21.96 120.858 20.66 121.538 19.5C122.218 18.3 123.158 17.16 124.358 16.08C126.398 14.24 129.218 13.32 132.818 13.32C134.258 13.32 136.038 13.64 138.158 14.28C140.678 12.12 142.898 11.04 144.818 11.04C146.018 11.04 146.878 11.28 147.398 11.76C147.958 12.2 148.238 12.98 148.238 14.1C148.238 14.54 148.058 14.96 147.698 15.36C147.378 15.72 146.958 15.9 146.438 15.9L144.278 15.84C142.918 15.84 141.938 16.1 141.338 16.62C142.098 17.54 142.718 18.72 143.198 20.16C143.718 21.6 143.978 23.24 143.978 25.08C143.978 27.52 142.298 29.8 138.938 31.92C136.858 33.04 134.438 33.62 131.678 33.66C131.358 33.98 131.078 34.28 130.838 34.56C130.638 34.8 130.538 35 130.538 35.16C130.538 35.6 130.918 35.94 131.678 36.18C132.438 36.42 133.598 36.6 135.158 36.72C136.318 36.8 137.618 37.06 139.058 37.5C140.538 37.9 141.698 38.36 142.538 38.88C143.578 39.64 144.298 40.46 144.698 41.34C145.138 42.22 145.358 43.32 145.358 44.64C145.358 46.36 144.558 47.8 142.958 48.96C141.398 50.16 139.558 51.04 137.438 51.6C135.318 52.16 133.458 52.44 131.858 52.44C129.938 52.44 128.298 52.2 126.938 51.72C125.618 51.28 124.358 50.66 123.158 49.86C122.318 49.26 121.658 48.5 121.178 47.58C120.698 46.66 120.458 45.7 120.458 44.7C120.458 43.9 121.058 42.82 122.258 41.46C123.498 40.1 124.698 39.16 125.858 38.64C125.738 38.52 125.598 38.34 125.438 38.1ZM131.498 28.74C133.378 28.74 134.958 28.24 136.238 27.24C137.518 26.2 138.158 24.78 138.158 22.98C138.158 21.54 137.738 20.4 136.898 19.56C136.058 18.68 134.878 18.24 133.358 18.24C130.198 18.24 128.138 18.94 127.178 20.34C126.938 20.66 126.698 21.28 126.458 22.2C126.218 23.08 126.098 23.76 126.098 24.24C126.098 24.92 126.338 25.62 126.818 26.34C127.338 27.02 128.018 27.6 128.858 28.08C129.698 28.52 130.578 28.74 131.498 28.74ZM126.098 45.12C126.098 45.8 126.718 46.38 127.958 46.86C129.238 47.38 130.598 47.64 132.038 47.64C133.638 47.64 135.278 47.34 136.958 46.74C138.678 46.18 139.538 45.42 139.538 44.46C139.538 43.06 138.298 42.16 135.818 41.76C133.098 41.28 130.958 40.84 129.398 40.44C129.238 41 128.698 41.72 127.778 42.6C127.178 43.2 126.738 43.66 126.458 43.98C126.218 44.34 126.098 44.72 126.098 45.12ZM153.5 6.78C153.06 6.78 152.74 6.7 152.54 6.54C152.02 6.22 151.58 5.84 151.22 5.4C150.9 4.96 150.74 4.32 150.74 3.48C150.78 2.88 150.92 2.36 151.16 1.92C151.4 1.44 151.74 1.1 152.18 0.899997C153.02 0.459998 154.1 0.239998 155.42 0.239998C156.38 0.239998 157.12 0.599998 157.64 1.32C158.2 2 158.48 2.84 158.48 3.84C158.48 5.04 158.12 6.44 157.4 8.04C156.72 9.6 156.04 10.82 155.36 11.7C154.84 12.3 154.26 12.82 153.62 13.26C152.98 13.7 152.42 13.92 151.94 13.92C150.98 13.92 150.38 13.78 150.14 13.5C149.94 13.18 149.84 12.64 149.84 11.88C149.84 11.56 150.26 11.06 151.1 10.38C151.78 9.78 152.2 9.36 152.36 9.12C152.96 8.32 153.4 7.54 153.68 6.78H153.5Z" fill="black"/>
</svg>
