<svg width="53" height="40" viewBox="0 0 53 40" fill="none" xmlns="http://www.w3.org/2000/svg">
<path d="M2.24 0.479999C3.64 0.599997 4.86 0.979997 5.9 1.62C6.94 2.22 7.46 3.14 7.46 4.38C7.46 5.3 7.02 6.04 6.14 6.6C5.3 7.12 4.28 7.38 3.08 7.38C1.92 7.38 1.12 7.08 0.68 6.48C0.24 5.88 0.0200001 5.26 0.0200001 4.62C0.0200001 3.42 0.14 2.42 0.38 1.62C0.66 0.819999 1.28 0.439999 2.24 0.479999ZM7.04 27.06V28.8C7.04 30.36 7.08 31.84 7.16 33.24C7.28 34.6 7.42 35.98 7.58 37.38C7.54 37.78 7.24 38.2 6.68 38.64C6.12 39.04 5.62 39.24 5.18 39.24C4.42 39.24 3.64 39.1 2.84 38.82C2.08 38.5 1.62 38.12 1.46 37.68C1.22 36.4 1.1 35.26 1.1 34.26C1.1 30.98 1 27.3 0.8 23.22C0.64 19.62 0.56 17.1 0.56 15.66C0.56 14.94 0.92 14.32 1.64 13.8C2.36 13.28 3.12 13.02 3.92 13.02C5.08 13.02 5.88 13.28 6.32 13.8C6.8 14.32 7.04 15.14 7.04 16.26V27.06ZM22.4516 36.84C22.3316 37.44 21.9716 37.96 21.3716 38.4C20.8116 38.8 20.0116 39 18.9716 39C18.0916 39 17.3916 38.76 16.8716 38.28C16.3916 37.8 16.1316 37.3 16.0916 36.78C16.3316 35.1 16.4516 32.58 16.4516 29.22C16.4516 27.22 16.3316 24.14 16.0916 19.98C15.8116 16.06 15.6716 12.58 15.6716 9.54C15.6716 7.9 15.7516 6.22 15.9116 4.5C15.9116 3.94 16.2316 3.34 16.8716 2.7C17.5516 2.06 18.4716 1.66 19.6316 1.5C23.4316 1.1 28.0916 0.899997 33.6116 0.899997H35.5316C36.9716 0.899997 38.3716 1.16 39.7316 1.68C41.1316 2.2 41.8316 3.1 41.8316 4.38C41.8316 5.22 41.6316 5.88 41.2316 6.36C40.8316 6.84 40.0916 7.08 39.0116 7.08C38.4916 7.08 37.8916 7.04 37.2116 6.96C36.5316 6.88 36.0516 6.82 35.7716 6.78C34.2516 6.54 33.0716 6.42 32.2316 6.42C27.5916 6.42 24.0916 6.74 21.7316 7.38C21.7316 8.7 21.7716 10.84 21.8516 13.8L21.9116 17.64C23.9916 17.64 25.8516 17.56 27.4916 17.4C29.1316 17.2 30.0716 17.08 30.3116 17.04C32.3916 16.8 33.7716 16.68 34.4516 16.68C35.4116 16.68 36.2116 16.9 36.8516 17.34C37.5316 17.74 37.8716 18.38 37.8716 19.26C37.8716 21.26 36.4716 22.26 33.6716 22.26C32.9916 22.26 32.3916 22.28 31.8716 22.32C31.3516 22.36 30.9116 22.4 30.5516 22.44C29.1116 22.6 27.9716 22.68 27.1316 22.68C25.2916 22.68 23.7316 22.74 22.4516 22.86C22.4516 24.34 22.5116 25.9 22.6316 27.54C22.6316 28.06 22.6516 28.86 22.6916 29.94C22.7716 31.02 22.8116 32 22.8116 32.88C22.8116 33.64 22.7916 34.34 22.7516 34.98C22.7116 35.62 22.6116 36.24 22.4516 36.84ZM47.0933 6.78C46.6533 6.78 46.3333 6.7 46.1333 6.54C45.6133 6.22 45.1733 5.84 44.8133 5.4C44.4933 4.96 44.3333 4.32 44.3333 3.48C44.3733 2.88 44.5133 2.36 44.7533 1.92C44.9933 1.44 45.3333 1.1 45.7733 0.899997C46.6133 0.459998 47.6933 0.239998 49.0133 0.239998C49.9733 0.239998 50.7133 0.599998 51.2333 1.32C51.7933 2 52.0733 2.84 52.0733 3.84C52.0733 5.04 51.7133 6.44 50.9933 8.04C50.3133 9.6 49.6333 10.82 48.9533 11.7C48.4333 12.3 47.8533 12.82 47.2133 13.26C46.5733 13.7 46.0133 13.92 45.5333 13.92C44.5733 13.92 43.9733 13.78 43.7333 13.5C43.5333 13.18 43.4333 12.64 43.4333 11.88C43.4333 11.56 43.8533 11.06 44.6933 10.38C45.3733 9.78 45.7933 9.36 45.9533 9.12C46.5533 8.32 46.9933 7.54 47.2733 6.78H47.0933Z" fill="white"/>
</svg>
